<svg width="237" height="76" viewBox="0 0 237 76" fill="none" xmlns="http://www.w3.org/2000/svg">
<mask id="path-1-inside-1_3_88" fill="white">
<path fill-rule="evenodd" clip-rule="evenodd" d="M48.8038 18.8812C30.3746 29.3757 14.5898 43.8729 2.58605 61.2547C-0.504223 65.7295 1.07166 71.792 5.75136 74.5623V74.5623C10.4492 77.3433 16.481 75.7445 19.6095 71.2705C34.3276 50.2231 55.8223 33.6643 82.1872 25.2788C134.063 8.77945 188.827 29.0007 218.412 71.4214C221.417 75.7296 227.219 77.2717 231.744 74.605V74.605C236.26 71.9432 237.79 66.1027 234.83 61.7754C222.837 44.2404 207.007 29.6086 188.496 19.0189C167.233 6.85479 143.165 0.444446 118.668 0.4203C94.1712 0.396154 70.0912 6.75904 48.8038 18.8812Z"/>
</mask>
<path fill-rule="evenodd" clip-rule="evenodd" d="M48.8038 18.8812C30.3746 29.3757 14.5898 43.8729 2.58605 61.2547C-0.504223 65.7295 1.07166 71.792 5.75136 74.5623V74.5623C10.4492 77.3433 16.481 75.7445 19.6095 71.2705C34.3276 50.2231 55.8223 33.6643 82.1872 25.2788C134.063 8.77945 188.827 29.0007 218.412 71.4214C221.417 75.7296 227.219 77.2717 231.744 74.605V74.605C236.26 71.9432 237.79 66.1027 234.83 61.7754C222.837 44.2404 207.007 29.6086 188.496 19.0189C167.233 6.85479 143.165 0.444446 118.668 0.4203C94.1712 0.396154 70.0912 6.75904 48.8038 18.8812Z" fill="#8250C1"/>
<path d="M48.8038 18.8812L49.2986 19.7502L49.2986 19.7502L48.8038 18.8812ZM82.1872 25.2788L81.8841 24.3258L81.8841 24.3258L82.1872 25.2788ZM188.496 19.0189L188 19.8869L188 19.8869L188.496 19.0189ZM118.668 0.4203L118.669 -0.579699L118.668 0.4203ZM218.412 71.4214L217.592 71.9935L218.412 71.4214ZM19.6095 71.2705L18.79 70.6975L19.6095 71.2705ZM234.83 61.7754L234.005 62.3399L234.83 61.7754ZM3.40891 61.823C15.3274 44.5645 31.0002 30.1702 49.2986 19.7502L48.3089 18.0122C29.749 28.5812 13.8521 43.1812 1.7632 60.6864L3.40891 61.823ZM20.429 71.8436C35.0257 50.9697 56.3417 34.5485 82.4903 26.2318L81.8841 24.3258C55.3028 32.7802 33.6295 49.4764 18.79 70.6975L20.429 71.8436ZM82.4903 26.2318C133.937 9.86893 188.25 29.9219 217.592 71.9935L219.232 70.8494C189.404 28.0796 134.189 7.68998 81.8841 24.3258L82.4903 26.2318ZM188 19.8869C206.379 30.4014 222.096 44.9294 234.005 62.3399L235.656 61.2108C223.577 43.5514 207.635 28.8157 188.993 18.1509L188 19.8869ZM118.667 1.4203C142.99 1.44427 166.887 7.80913 188 19.8869L188.993 18.1509C167.578 5.90046 143.34 -0.555382 118.669 -0.579699L118.667 1.4203ZM49.2986 19.7502C70.435 7.71405 94.3441 1.39632 118.667 1.4203L118.669 -0.579699C93.9984 -0.604017 69.7474 5.80403 48.3089 18.0122L49.2986 19.7502ZM217.592 71.9935C220.867 76.6887 227.234 78.4236 232.251 75.4665L231.236 73.7435C227.204 76.1198 221.967 74.7705 219.232 70.8494L217.592 71.9935ZM5.24195 75.4228C10.4331 78.4958 17.0305 76.7036 20.429 71.8436L18.79 70.6975C15.9314 74.7853 10.4654 76.1908 6.26077 73.7017L5.24195 75.4228ZM232.251 75.4665C237.227 72.5341 238.968 66.0529 235.656 61.2108L234.005 62.3399C236.613 66.1525 235.294 71.3522 231.236 73.7435L232.251 75.4665ZM1.7632 60.6864C-1.683 65.6767 0.104323 72.3814 5.24195 75.4228L6.26077 73.7017C2.039 71.2025 0.674555 65.7824 3.40891 61.823L1.7632 60.6864Z" fill="#8250C1" mask="url(#path-1-inside-1_3_88)"/>
</svg>
